<svg width="14" height="16" viewBox="0 0 14 16" fill="none" xmlns="http://www.w3.org/2000/svg">
<path d="M13.3688 4.42497C13.3671 4.42497 13.3655 4.42431 13.3643 4.42314C13.3632 4.42197 13.3625 4.42038 13.3625 4.41872C13.2722 4.26492 13.1428 4.13771 12.9875 4.04997L7.4875 0.956223C7.33849 0.873024 7.17067 0.829346 7 0.829346C6.82934 0.829346 6.66152 0.873024 6.5125 0.956223L1.0125 4.04997C0.857206 4.13771 0.727841 4.26492 0.637504 4.41872C0.637504 4.42038 0.636846 4.42197 0.635674 4.42314C0.634502 4.42431 0.632912 4.42497 0.631254 4.42497V4.43747C0.544847 4.58309 0.499491 4.7494 0.500004 4.91872V11.0812C0.50032 11.2594 0.547933 11.4343 0.637976 11.588C0.72802 11.7417 0.857265 11.8688 1.0125 11.9562L6.5125 15.05C6.65097 15.1255 6.80492 15.1683 6.9625 15.175H7.05C7.20362 15.1682 7.35348 15.1253 7.4875 15.05L12.9875 11.9562C13.1427 11.8688 13.272 11.7417 13.362 11.588C13.4521 11.4343 13.4997 11.2594 13.5 11.0812V4.91872C13.5009 4.7454 13.4556 4.57496 13.3688 4.42497ZM7 1.82497L11.9813 4.62497L10.0688 5.71247L5.025 2.93122L7 1.82497ZM7.05625 7.42497L2.025 4.62497L4 3.51247L9.05 6.29372L7.05625 7.42497ZM7.50625 13.8937L7.55625 8.29372L9.5625 7.14997V9.53122C9.5625 9.66383 9.61518 9.79101 9.70895 9.88478C9.80272 9.97854 9.9299 10.0312 10.0625 10.0312C10.1951 10.0312 10.3223 9.97854 10.4161 9.88478C10.5098 9.79101 10.5625 9.66383 10.5625 9.53122V6.58122L12.5 5.48122V11.0812L7.50625 13.8937Z" fill="#FAFAFA"/>
</svg>
