<svg width="12" height="12" viewBox="0 0 12 12" fill="none" xmlns="http://www.w3.org/2000/svg">
<path d="M6 0C4.81331 0 3.65328 0.351894 2.66658 1.01118C1.67989 1.67047 0.910851 2.60754 0.456725 3.7039C0.00259972 4.80026 -0.11622 6.00666 0.115291 7.17054C0.346802 8.33443 0.918247 9.40353 1.75736 10.2426C2.59648 11.0818 3.66557 11.6532 4.82946 11.8847C5.99335 12.1162 7.19975 11.9974 8.2961 11.5433C9.39246 11.0892 10.3295 10.3201 10.9888 9.33342C11.6481 8.34673 12 7.18669 12 6C11.9967 4.40972 11.3635 2.88551 10.239 1.76101C9.11449 0.636504 7.59029 0.00330278 6 0V0ZM8.83125 3.88125L6.35625 6.35625C6.26068 6.44866 6.13294 6.50032 6 6.50032C5.86706 6.50032 5.73932 6.44866 5.64375 6.35625C5.54986 6.26145 5.49719 6.13342 5.49719 6C5.49719 5.86658 5.54986 5.73855 5.64375 5.64375L8.11875 3.16875C8.16358 3.11413 8.21935 3.06949 8.28247 3.03772C8.34559 3.00595 8.41467 2.98775 8.48525 2.98428C8.55583 2.98082 8.62635 2.99216 8.69228 3.0176C8.75821 3.04303 8.81809 3.08198 8.86805 3.13195C8.91802 3.18192 8.95697 3.24179 8.98241 3.30772C9.00784 3.37365 9.01919 3.44418 9.01572 3.51476C9.01225 3.58534 8.99405 3.65441 8.96228 3.71753C8.93051 3.78065 8.88588 3.83642 8.83125 3.88125V3.88125Z" fill="#FAFAFA"/>
</svg>
