<svg viewBox="0 0 32 32" xmlns="http://www.w3.org/2000/svg">
<path d="M28.7375 8.84982C28.7342 8.84982 28.731 8.84851 28.7287 8.84616C28.7263 8.84382 28.725 8.84064 28.725 8.83732C28.5443 8.52972 28.2856 8.2753 27.975 8.09982L16.975 1.91232C16.677 1.74593 16.3413 1.65857 16 1.65857C15.6587 1.65857 15.323 1.74593 15.025 1.91232L4.02501 8.09982C3.71441 8.2753 3.45568 8.52972 3.27501 8.83732C3.27501 8.84064 3.27369 8.84382 3.27135 8.84616C3.269 8.84851 3.26582 8.84982 3.26251 8.84982V8.87482C3.08969 9.16606 2.99898 9.49867 3.00001 9.83732V22.1623C3.00064 22.5186 3.09587 22.8684 3.27595 23.1759C3.45604 23.4833 3.71453 23.7375 4.02501 23.9123L15.025 30.0998C15.3019 30.2509 15.6098 30.3364 15.925 30.3498H16.1C16.4072 30.3362 16.707 30.2506 16.975 30.0998L27.975 23.9123C28.2855 23.7375 28.544 23.4833 28.7241 23.1759C28.9042 22.8684 28.9994 22.5186 29 22.1623V9.83732C29.0018 9.49068 28.9112 9.14981 28.7375 8.84982ZM16 3.64982L25.9625 9.24982L22.1375 11.4248L12.05 5.86232L16 3.64982ZM16.1125 14.8498L6.05001 9.24982L10 7.02482L20.1 12.5873L16.1125 14.8498ZM17.0125 27.7873L17.1125 16.5873L21.125 14.2998V19.0623C21.125 19.3275 21.2304 19.5819 21.4179 19.7694C21.6054 19.957 21.8598 20.0623 22.125 20.0623C22.3902 20.0623 22.6446 19.957 22.8321 19.7694C23.0197 19.5819 23.125 19.3275 23.125 19.0623V13.1623L27 10.9623V22.1623L17.0125 27.7873Z" />
</svg>
